<?xml version="1.0" standalone="no"?><!DOCTYPE svg PUBLIC "-//W3C//DTD SVG 1.1//EN" "http://www.w3.org/Graphics/SVG/1.1/DTD/svg11.dtd"><svg t="1627719474328" class="icon" viewBox="0 0 1024 1024" version="1.1" xmlns="http://www.w3.org/2000/svg" p-id="5224" xmlns:xlink="http://www.w3.org/1999/xlink" width="32" height="32"><defs><style type="text/css"></style></defs><path d="M853.333333 768H170.666667a128 128 0 0 1-128-128V256a128 128 0 0 1 128-128h682.666666a128 128 0 0 1 128 128v384a128 128 0 0 1-128 128zM170.666667 213.333333a42.666667 42.666667 0 0 0-42.666667 42.666667v384a42.666667 42.666667 0 0 0 42.666667 42.666667h682.666666a42.666667 42.666667 0 0 0 42.666667-42.666667V256a42.666667 42.666667 0 0 0-42.666667-42.666667zM640 896H384a42.666667 42.666667 0 0 1 0-85.333333h256a42.666667 42.666667 0 0 1 0 85.333333z" p-id="5225"></path><path d="M256 597.333333a42.666667 42.666667 0 0 1-42.666667-42.666666v-85.333334a42.666667 42.666667 0 0 1 85.333334 0v85.333334a42.666667 42.666667 0 0 1-42.666667 42.666666zM426.666667 597.333333a42.666667 42.666667 0 0 1-42.666667-42.666666v-128a42.666667 42.666667 0 0 1 85.333333 0v128a42.666667 42.666667 0 0 1-42.666666 42.666666zM597.333333 597.333333a42.666667 42.666667 0 0 1-42.666666-42.666666V384a42.666667 42.666667 0 0 1 85.333333 0v170.666667a42.666667 42.666667 0 0 1-42.666667 42.666666zM768 597.333333a42.666667 42.666667 0 0 1-42.666667-42.666666V341.333333a42.666667 42.666667 0 0 1 85.333334 0v213.333334a42.666667 42.666667 0 0 1-42.666667 42.666666z" p-id="5226"></path></svg>